<svg viewBox="0 0 80 24" fill="none" xmlns="http://www.w3.org/2000/svg">
    <path
        d="M6.40487 23.328C5.12487 23.328 3.99687 23.104 3.02087 22.656C2.06087 22.224 1.30087 21.608 0.740871 20.808L2.99687 18.552C3.41287 19.048 3.87687 19.424 4.38887 19.68C4.91687 19.936 5.54887 20.064 6.28487 20.064C7.19687 20.064 7.90887 19.84 8.42087 19.392C8.94887 18.944 9.21287 18.312 9.21287 17.496V14.52L9.83687 11.976L9.28487 9.432V6.432H12.8849V17.4C12.8849 18.6 12.6049 19.64 12.0449 20.52C11.4849 21.4 10.7169 22.088 9.74087 22.584C8.76487 23.08 7.65287 23.328 6.40487 23.328ZM6.23687 17.736C5.16487 17.736 4.21287 17.48 3.38087 16.968C2.54887 16.456 1.89287 15.76 1.41287 14.88C0.932871 14 0.692871 13.024 0.692871 11.952C0.692871 10.864 0.932871 9.888 1.41287 9.024C1.89287 8.144 2.54887 7.456 3.38087 6.96C4.21287 6.448 5.16487 6.192 6.23687 6.192C7.03687 6.192 7.74887 6.344 8.37287 6.648C9.01287 6.936 9.52487 7.352 9.90887 7.896C10.3089 8.424 10.5329 9.04 10.5809 9.744V14.184C10.5329 14.872 10.3089 15.488 9.90887 16.032C9.52487 16.56 9.01287 16.976 8.37287 17.28C7.73287 17.584 7.02087 17.736 6.23687 17.736ZM6.93287 14.472C7.44487 14.472 7.88487 14.36 8.25287 14.136C8.63687 13.912 8.92487 13.616 9.11687 13.248C9.32487 12.864 9.42887 12.432 9.42887 11.952C9.42887 11.472 9.32487 11.04 9.11687 10.656C8.92487 10.272 8.63687 9.968 8.25287 9.744C7.88487 9.52 7.44487 9.408 6.93287 9.408C6.43687 9.408 5.99687 9.52 5.61287 9.744C5.22887 9.968 4.93287 10.272 4.72487 10.656C4.51687 11.04 4.41287 11.472 4.41287 11.952C4.41287 12.4 4.51687 12.824 4.72487 13.224C4.93287 13.608 5.22087 13.912 5.58887 14.136C5.97287 14.36 6.42087 14.472 6.93287 14.472Z"
        fill="currentColor" />
    <path
        d="M15.4765 18.096V6.432H19.1485V18.096H15.4765ZM19.1485 11.688L17.6125 10.488C17.9165 9.128 18.4285 8.072 19.1485 7.32C19.8685 6.568 20.8685 6.192 22.1485 6.192C22.7085 6.192 23.1965 6.28 23.6125 6.456C24.0445 6.616 24.4205 6.872 24.7405 7.224L22.5565 9.984C22.3965 9.808 22.1965 9.672 21.9565 9.576C21.7165 9.48 21.4445 9.432 21.1405 9.432C20.5325 9.432 20.0445 9.624 19.6765 10.008C19.3245 10.376 19.1485 10.936 19.1485 11.688Z"
        fill="currentColor" />
    <path
        d="M30.2626 18.336C29.1906 18.336 28.2306 18.072 27.3826 17.544C26.5506 17.016 25.8866 16.296 25.3906 15.384C24.9106 14.472 24.6706 13.432 24.6706 12.264C24.6706 11.096 24.9106 10.056 25.3906 9.144C25.8866 8.232 26.5506 7.512 27.3826 6.984C28.2306 6.456 29.1906 6.192 30.2626 6.192C31.0466 6.192 31.7506 6.344 32.3746 6.648C33.0146 6.952 33.5346 7.376 33.9346 7.92C34.3346 8.448 34.5586 9.056 34.6066 9.744V14.784C34.5586 15.472 34.3346 16.088 33.9346 16.632C33.5506 17.16 33.0386 17.576 32.3986 17.88C31.7586 18.184 31.0466 18.336 30.2626 18.336ZM31.0066 15.024C31.7906 15.024 32.4226 14.768 32.9026 14.256C33.3826 13.728 33.6226 13.064 33.6226 12.264C33.6226 11.72 33.5106 11.24 33.2866 10.824C33.0786 10.408 32.7746 10.088 32.3746 9.864C31.9906 9.624 31.5426 9.504 31.0306 9.504C30.5186 9.504 30.0626 9.624 29.6626 9.864C29.2786 10.088 28.9666 10.408 28.7266 10.824C28.5026 11.24 28.3906 11.72 28.3906 12.264C28.3906 12.792 28.5026 13.264 28.7266 13.68C28.9506 14.096 29.2626 14.424 29.6626 14.664C30.0626 14.904 30.5106 15.024 31.0066 15.024ZM33.4786 18.096V14.952L34.0306 12.12L33.4786 9.288V6.432H37.0786V18.096H33.4786Z"
        fill="currentColor" />
    <path
        d="M46.384 18.336C45.6 18.336 44.88 18.176 44.224 17.856C43.568 17.52 43.032 17.08 42.616 16.536C42.2 15.976 41.96 15.352 41.896 14.664V9.744C41.96 9.056 42.2 8.448 42.616 7.92C43.032 7.376 43.568 6.952 44.224 6.648C44.88 6.344 45.6 6.192 46.384 6.192C47.488 6.192 48.464 6.456 49.312 6.984C50.176 7.512 50.848 8.232 51.328 9.144C51.824 10.056 52.072 11.096 52.072 12.264C52.072 13.432 51.824 14.472 51.328 15.384C50.848 16.296 50.176 17.016 49.312 17.544C48.464 18.072 47.488 18.336 46.384 18.336ZM39.664 18.096V0.671997H43.336V9.288L42.736 12.12L43.288 14.952V18.096H39.664ZM45.736 15.024C46.248 15.024 46.696 14.904 47.08 14.664C47.48 14.424 47.792 14.096 48.016 13.68C48.24 13.264 48.352 12.792 48.352 12.264C48.352 11.72 48.24 11.24 48.016 10.824C47.792 10.408 47.48 10.088 47.08 9.864C46.696 9.624 46.248 9.504 45.736 9.504C45.224 9.504 44.768 9.624 44.368 9.864C43.968 10.088 43.656 10.408 43.432 10.824C43.224 11.24 43.12 11.72 43.12 12.264C43.12 12.808 43.232 13.288 43.456 13.704C43.68 14.12 43.984 14.448 44.368 14.688C44.768 14.912 45.224 15.024 45.736 15.024Z"
        fill="currentColor" />
    <path
        d="M60.6574 18.336C59.8734 18.336 59.1534 18.176 58.4974 17.856C57.8414 17.52 57.3054 17.08 56.8894 16.536C56.4734 15.976 56.2334 15.352 56.1694 14.664V9.744C56.2334 9.056 56.4734 8.448 56.8894 7.92C57.3054 7.376 57.8414 6.952 58.4974 6.648C59.1534 6.344 59.8734 6.192 60.6574 6.192C61.7614 6.192 62.7374 6.456 63.5854 6.984C64.4494 7.512 65.1214 8.232 65.6014 9.144C66.0974 10.056 66.3454 11.096 66.3454 12.264C66.3454 13.432 66.0974 14.472 65.6014 15.384C65.1214 16.296 64.4494 17.016 63.5854 17.544C62.7374 18.072 61.7614 18.336 60.6574 18.336ZM53.9374 18.096V0.671997H57.6094V9.288L57.0094 12.12L57.5614 14.952V18.096H53.9374ZM60.0094 15.024C60.5214 15.024 60.9694 14.904 61.3534 14.664C61.7534 14.424 62.0654 14.096 62.2894 13.68C62.5134 13.264 62.6254 12.792 62.6254 12.264C62.6254 11.72 62.5134 11.24 62.2894 10.824C62.0654 10.408 61.7534 10.088 61.3534 9.864C60.9694 9.624 60.5214 9.504 60.0094 9.504C59.4974 9.504 59.0414 9.624 58.6414 9.864C58.2414 10.088 57.9294 10.408 57.7054 10.824C57.4974 11.24 57.3934 11.72 57.3934 12.264C57.3934 12.808 57.5054 13.288 57.7294 13.704C57.9534 14.12 58.2574 14.448 58.6414 14.688C59.0414 14.912 59.4974 15.024 60.0094 15.024Z"
        fill="currentColor" />
    <path
        d="M71.4827 18.144L66.6827 6.432H70.6427L73.6907 15.72H72.2267L75.3467 6.432H79.3067L74.3147 18.144H71.4827ZM68.4827 23.016L71.9867 15.456L74.3147 18.144L72.2507 23.016H68.4827Z"
        fill="currentColor" />
</svg>