<svg viewBox="0 0 256 256" fill="none" xmlns="http://www.w3.org/2000/svg">
    <g clip-path="url(#clip0_49_181)">
        <g clip-path="url(#clip1_49_181)">
            <rect x="34" y="34" width="188" height="188" rx="94"
                fill="hsl(var(--illustration-primary) / 25%)" />
            <rect x="72" y="104" width="216" height="48" rx="12"
                fill="hsl(var(--illustration-primary))" />
            <path
                d="M91.128 136.616C90.2427 136.616 89.4587 136.467 88.776 136.168C88.0933 135.88 87.5653 135.469 87.192 134.936L89.048 133.096C89.2933 133.363 89.5653 133.571 89.864 133.72C90.1627 133.88 90.5253 133.96 90.952 133.96C91.464 133.96 91.864 133.837 92.152 133.592C92.4507 133.347 92.6 132.989 92.6 132.52V130.44L93.112 128.744L92.68 127.064V125.128H95.736V132.392C95.736 133.256 95.5333 134.003 95.128 134.632C94.7227 135.261 94.1733 135.747 93.48 136.088C92.7867 136.44 92.0027 136.616 91.128 136.616ZM90.984 132.68C90.248 132.68 89.5973 132.509 89.032 132.168C88.4667 131.827 88.024 131.363 87.704 130.776C87.384 130.189 87.224 129.539 87.224 128.824C87.224 128.099 87.384 127.448 87.704 126.872C88.024 126.285 88.4667 125.821 89.032 125.48C89.5973 125.139 90.248 124.968 90.984 124.968C91.4427 124.968 91.864 125.048 92.248 125.208C92.6427 125.357 92.968 125.571 93.224 125.848C93.4907 126.125 93.6613 126.445 93.736 126.808V130.84C93.6613 131.203 93.4907 131.523 93.224 131.8C92.968 132.077 92.6427 132.296 92.248 132.456C91.864 132.605 91.4427 132.68 90.984 132.68ZM91.56 130.008C91.816 130.008 92.0347 129.949 92.216 129.832C92.3973 129.715 92.536 129.565 92.632 129.384C92.728 129.203 92.776 129.011 92.776 128.808C92.776 128.605 92.728 128.413 92.632 128.232C92.536 128.051 92.3973 127.901 92.216 127.784C92.0453 127.667 91.832 127.608 91.576 127.608C91.3307 127.608 91.1173 127.667 90.936 127.784C90.7547 127.901 90.616 128.056 90.52 128.248C90.424 128.429 90.376 128.616 90.376 128.808C90.376 128.989 90.424 129.176 90.52 129.368C90.616 129.549 90.7493 129.704 90.92 129.832C91.1013 129.949 91.3147 130.008 91.56 130.008ZM97.2208 133V125.128H100.357V133H97.2208ZM100.357 128.744L98.9008 127.448C99.3061 126.595 99.7754 125.971 100.309 125.576C100.853 125.171 101.53 124.968 102.341 124.968C102.703 124.968 103.013 125.011 103.269 125.096C103.535 125.181 103.749 125.304 103.909 125.464L102.149 127.96C102.074 127.875 101.962 127.805 101.813 127.752C101.674 127.688 101.509 127.656 101.317 127.656C100.997 127.656 100.757 127.752 100.597 127.944C100.437 128.125 100.357 128.392 100.357 128.744ZM107.407 133.16C106.671 133.16 106.02 132.984 105.455 132.632C104.89 132.28 104.447 131.8 104.127 131.192C103.807 130.573 103.647 129.864 103.647 129.064C103.647 128.264 103.807 127.555 104.127 126.936C104.447 126.317 104.89 125.837 105.455 125.496C106.02 125.144 106.671 124.968 107.407 124.968C107.866 124.968 108.287 125.048 108.671 125.208C109.066 125.357 109.391 125.571 109.647 125.848C109.914 126.125 110.084 126.445 110.159 126.808V131.32C110.084 131.683 109.914 132.003 109.647 132.28C109.391 132.557 109.066 132.776 108.671 132.936C108.287 133.085 107.866 133.16 107.407 133.16ZM108.111 130.408C108.506 130.408 108.82 130.285 109.055 130.04C109.3 129.784 109.423 129.459 109.423 129.064C109.423 128.797 109.37 128.568 109.263 128.376C109.156 128.173 109.002 128.013 108.799 127.896C108.607 127.779 108.383 127.72 108.127 127.72C107.871 127.72 107.642 127.779 107.439 127.896C107.247 128.013 107.092 128.173 106.975 128.376C106.858 128.579 106.799 128.808 106.799 129.064C106.799 129.32 106.852 129.549 106.959 129.752C107.076 129.955 107.236 130.115 107.439 130.232C107.642 130.349 107.866 130.408 108.111 130.408ZM109.327 133V130.888L109.759 128.968L109.327 127.064V125.128H112.383V133H109.327ZM118.741 133.16C118.271 133.16 117.829 133.069 117.413 132.888C116.997 132.707 116.645 132.467 116.357 132.168C116.069 131.859 115.882 131.523 115.797 131.16V126.808C115.882 126.445 116.069 126.125 116.357 125.848C116.645 125.571 116.997 125.357 117.413 125.208C117.829 125.048 118.271 124.968 118.741 124.968C119.519 124.968 120.197 125.144 120.773 125.496C121.359 125.837 121.813 126.317 122.133 126.936C122.463 127.555 122.629 128.264 122.629 129.064C122.629 129.864 122.463 130.573 122.133 131.192C121.813 131.8 121.359 132.28 120.773 132.632C120.197 132.984 119.519 133.16 118.741 133.16ZM113.893 133V121.288H117.029V127.064L116.517 128.968L116.949 130.888V133H113.893ZM118.165 130.408C118.421 130.408 118.645 130.349 118.837 130.232C119.039 130.115 119.194 129.955 119.301 129.752C119.418 129.549 119.477 129.32 119.477 129.064C119.477 128.808 119.418 128.579 119.301 128.376C119.194 128.173 119.039 128.013 118.837 127.896C118.634 127.779 118.405 127.72 118.149 127.72C117.893 127.72 117.663 127.779 117.461 127.896C117.269 128.013 117.119 128.173 117.013 128.376C116.906 128.568 116.853 128.797 116.853 129.064C116.853 129.331 116.906 129.565 117.013 129.768C117.13 129.971 117.285 130.131 117.477 130.248C117.679 130.355 117.909 130.408 118.165 130.408ZM128.506 133.16C128.037 133.16 127.594 133.069 127.178 132.888C126.762 132.707 126.41 132.467 126.122 132.168C125.834 131.859 125.648 131.523 125.562 131.16V126.808C125.648 126.445 125.834 126.125 126.122 125.848C126.41 125.571 126.762 125.357 127.178 125.208C127.594 125.048 128.037 124.968 128.506 124.968C129.285 124.968 129.962 125.144 130.538 125.496C131.125 125.837 131.578 126.317 131.898 126.936C132.229 127.555 132.394 128.264 132.394 129.064C132.394 129.864 132.229 130.573 131.898 131.192C131.578 131.8 131.125 132.28 130.538 132.632C129.962 132.984 129.285 133.16 128.506 133.16ZM123.658 133V121.288H126.794V127.064L126.282 128.968L126.714 130.888V133H123.658ZM127.93 130.408C128.186 130.408 128.41 130.349 128.602 130.232C128.805 130.115 128.96 129.955 129.066 129.752C129.184 129.549 129.242 129.32 129.242 129.064C129.242 128.808 129.184 128.579 129.066 128.376C128.96 128.173 128.805 128.013 128.602 127.896C128.4 127.779 128.17 127.72 127.914 127.72C127.658 127.72 127.429 127.779 127.226 127.896C127.034 128.013 126.885 128.173 126.778 128.376C126.672 128.568 126.618 128.797 126.618 129.064C126.618 129.331 126.672 129.565 126.778 129.768C126.896 129.971 127.05 130.131 127.242 130.248C127.445 130.355 127.674 130.408 127.93 130.408ZM135.556 133L132.452 125.128H135.78L137.604 131.832H136.228L138.02 125.128H141.332L138.244 133H135.556ZM133.844 136.36L136.132 131.192L138.244 133L136.916 136.36H133.844ZM142.668 133.192C142.166 133.192 141.75 133.021 141.42 132.68C141.089 132.339 140.924 131.923 140.924 131.432C140.924 130.931 141.089 130.509 141.42 130.168C141.75 129.827 142.166 129.656 142.668 129.656C143.169 129.656 143.58 129.827 143.9 130.168C144.23 130.509 144.396 130.931 144.396 131.432C144.396 131.923 144.23 132.339 143.9 132.68C143.58 133.021 143.169 133.192 142.668 133.192ZM149.72 133.192C148.867 133.192 148.099 133.016 147.416 132.664C146.734 132.312 146.195 131.827 145.8 131.208C145.406 130.579 145.208 129.869 145.208 129.08C145.208 128.28 145.406 127.571 145.8 126.952C146.206 126.323 146.75 125.832 147.432 125.48C148.126 125.117 148.904 124.936 149.768 124.936C150.387 124.936 150.942 125.032 151.432 125.224C151.934 125.416 152.398 125.709 152.824 126.104L150.856 128.072C150.718 127.944 150.563 127.848 150.392 127.784C150.222 127.72 150.014 127.688 149.768 127.688C149.512 127.688 149.278 127.747 149.064 127.864C148.862 127.971 148.696 128.125 148.568 128.328C148.44 128.531 148.376 128.771 148.376 129.048C148.376 129.325 148.44 129.571 148.568 129.784C148.696 129.987 148.867 130.147 149.08 130.264C149.294 130.381 149.523 130.44 149.768 130.44C150.046 130.44 150.275 130.397 150.456 130.312C150.638 130.227 150.798 130.109 150.936 129.96L152.904 131.928C152.446 132.355 151.966 132.675 151.464 132.888C150.963 133.091 150.382 133.192 149.72 133.192ZM157.564 133.192C156.7 133.192 155.926 133.016 155.244 132.664C154.572 132.301 154.038 131.805 153.644 131.176C153.26 130.547 153.068 129.837 153.068 129.048C153.068 128.259 153.26 127.555 153.644 126.936C154.028 126.317 154.556 125.832 155.228 125.48C155.91 125.117 156.684 124.936 157.548 124.936C158.412 124.936 159.18 125.117 159.852 125.48C160.524 125.832 161.052 126.317 161.436 126.936C161.83 127.555 162.028 128.259 162.028 129.048C162.028 129.837 161.836 130.547 161.452 131.176C161.068 131.805 160.54 132.301 159.868 132.664C159.196 133.016 158.428 133.192 157.564 133.192ZM157.548 130.44C157.814 130.44 158.044 130.387 158.236 130.28C158.438 130.163 158.593 130.003 158.7 129.8C158.806 129.587 158.86 129.341 158.86 129.064C158.86 128.787 158.801 128.547 158.684 128.344C158.577 128.131 158.428 127.971 158.236 127.864C158.044 127.747 157.814 127.688 157.548 127.688C157.292 127.688 157.062 127.747 156.86 127.864C156.668 127.981 156.513 128.147 156.396 128.36C156.289 128.563 156.236 128.803 156.236 129.08C156.236 129.347 156.289 129.587 156.396 129.8C156.513 130.003 156.668 130.163 156.86 130.28C157.062 130.387 157.292 130.44 157.548 130.44ZM162.202 134.12L165.562 120.68H168.17L164.81 134.12H162.202Z"
                fill="black" />
            <path opacity="0.25"
                d="M175.736 133.192C174.883 133.192 174.115 133.016 173.432 132.664C172.749 132.312 172.211 131.827 171.816 131.208C171.421 130.579 171.224 129.869 171.224 129.08C171.224 128.28 171.421 127.571 171.816 126.952C172.221 126.323 172.765 125.832 173.448 125.48C174.141 125.117 174.92 124.936 175.784 124.936C176.403 124.936 176.957 125.032 177.448 125.224C177.949 125.416 178.413 125.709 178.84 126.104L176.872 128.072C176.733 127.944 176.579 127.848 176.408 127.784C176.237 127.72 176.029 127.688 175.784 127.688C175.528 127.688 175.293 127.747 175.08 127.864C174.877 127.971 174.712 128.125 174.584 128.328C174.456 128.531 174.392 128.771 174.392 129.048C174.392 129.325 174.456 129.571 174.584 129.784C174.712 129.987 174.883 130.147 175.096 130.264C175.309 130.381 175.539 130.44 175.784 130.44C176.061 130.44 176.291 130.397 176.472 130.312C176.653 130.227 176.813 130.109 176.952 129.96L178.92 131.928C178.461 132.355 177.981 132.675 177.48 132.888C176.979 133.091 176.397 133.192 175.736 133.192ZM182.742 133V121.608H185.942V133H182.742ZM179.334 124.328V121.608H189.366V124.328H179.334ZM190.569 133V121.608H193.769V133H190.569ZM197.449 133V121.608H200.649V133H197.449ZM192.313 128.52V125.864H198.697V128.52H192.313ZM201.914 131.288L206.458 126.712C206.639 126.531 206.783 126.365 206.89 126.216C207.007 126.056 207.087 125.907 207.13 125.768C207.183 125.629 207.21 125.485 207.21 125.336C207.21 124.963 207.087 124.669 206.842 124.456C206.607 124.232 206.287 124.12 205.882 124.12C205.519 124.12 205.183 124.232 204.874 124.456C204.564 124.669 204.234 125.037 203.882 125.56L201.802 123.688C202.271 122.941 202.874 122.376 203.61 121.992C204.356 121.608 205.204 121.416 206.154 121.416C207.018 121.416 207.759 121.571 208.378 121.88C209.007 122.179 209.487 122.611 209.818 123.176C210.159 123.741 210.33 124.413 210.33 125.192C210.33 125.629 210.271 126.04 210.154 126.424C210.036 126.808 209.85 127.187 209.594 127.56C209.338 127.923 209.007 128.296 208.602 128.68L205.738 131.4L201.914 131.288ZM201.914 133V131.288L204.57 130.376H210.57V133H201.914ZM216.744 133V128.584C216.744 128.275 216.654 128.04 216.472 127.88C216.302 127.709 216.083 127.624 215.816 127.624C215.635 127.624 215.47 127.661 215.32 127.736C215.182 127.811 215.07 127.923 214.984 128.072C214.91 128.211 214.872 128.381 214.872 128.584L213.656 128.04C213.656 127.4 213.784 126.851 214.04 126.392C214.307 125.933 214.67 125.581 215.128 125.336C215.598 125.091 216.142 124.968 216.76 124.968C217.4 124.968 217.955 125.096 218.424 125.352C218.894 125.597 219.251 125.939 219.496 126.376C219.752 126.803 219.88 127.299 219.88 127.864V133H216.744ZM211.736 133V121.288H214.872V133H211.736ZM224.597 136.616C223.711 136.616 222.927 136.467 222.245 136.168C221.562 135.88 221.034 135.469 220.661 134.936L222.517 133.096C222.762 133.363 223.034 133.571 223.333 133.72C223.631 133.88 223.994 133.96 224.421 133.96C224.933 133.96 225.333 133.837 225.621 133.592C225.919 133.347 226.069 132.989 226.069 132.52V130.44L226.581 128.744L226.149 127.064V125.128H229.205V132.392C229.205 133.256 229.002 134.003 228.597 134.632C228.191 135.261 227.642 135.747 226.949 136.088C226.255 136.44 225.471 136.616 224.597 136.616ZM224.453 132.68C223.717 132.68 223.066 132.509 222.501 132.168C221.935 131.827 221.493 131.363 221.173 130.776C220.853 130.189 220.693 129.539 220.693 128.824C220.693 128.099 220.853 127.448 221.173 126.872C221.493 126.285 221.935 125.821 222.501 125.48C223.066 125.139 223.717 124.968 224.453 124.968C224.911 124.968 225.333 125.048 225.717 125.208C226.111 125.357 226.437 125.571 226.693 125.848C226.959 126.125 227.13 126.445 227.205 126.808V130.84C227.13 131.203 226.959 131.523 226.693 131.8C226.437 132.077 226.111 132.296 225.717 132.456C225.333 132.605 224.911 132.68 224.453 132.68ZM225.029 130.008C225.285 130.008 225.503 129.949 225.685 129.832C225.866 129.715 226.005 129.565 226.101 129.384C226.197 129.203 226.245 129.011 226.245 128.808C226.245 128.605 226.197 128.413 226.101 128.232C226.005 128.051 225.866 127.901 225.685 127.784C225.514 127.667 225.301 127.608 225.045 127.608C224.799 127.608 224.586 127.667 224.405 127.784C224.223 127.901 224.085 128.056 223.989 128.248C223.893 128.429 223.845 128.616 223.845 128.808C223.845 128.989 223.893 129.176 223.989 129.368C224.085 129.549 224.218 129.704 224.389 129.832C224.57 129.949 224.783 130.008 225.029 130.008ZM230.162 129.16L233.586 121.608H236.978L233.474 129.16H230.162ZM230.162 130.872V129.16L231.026 128.248H239.57V130.872H230.162ZM235.506 133V126.344H238.626V133H235.506Z"
                fill="black" />
        </g>
        <rect class="ping-animation" x="34" y="34" width="188" height="188" rx="94"
            fill="hsl(var(--illustration-primary) / 25%)" />
        <path
            d="M23.1308 11.8944L18.2903 16.0359C17.8637 16.3997 17.513 16.844 17.2585 17.3436C17.004 17.8431 16.8506 18.3879 16.8071 18.9469C16.7636 19.5058 16.8309 20.0679 17.0051 20.6007C17.1792 21.1336 17.4569 21.6269 17.8221 22.0522L36.2842 43.6303L18.003 49.0544L17.8826 49.0913C16.8384 49.4466 15.9217 50.1012 15.2466 50.9736C14.5716 51.846 14.1681 52.8976 14.0864 53.9977L14.0649 54.2737C14.0237 55.424 14.337 56.5591 14.9623 57.5255C15.5876 58.4918 16.4948 59.2426 17.5609 59.6763L72.7737 82.5834C73.7397 82.985 74.7982 83.111 75.8315 82.9476C76.8649 82.7841 77.8328 82.3375 78.6277 81.6574C79.4227 80.9772 80.0136 80.0901 80.335 79.0945C80.6563 78.0988 80.6955 77.0336 80.4482 76.0171L66.3586 17.9252C66.0807 16.8143 65.4734 15.8133 64.6164 15.0537C63.7595 14.294 62.6929 13.8111 61.5567 13.6684C60.4204 13.5257 59.2676 13.7298 58.2494 14.254C57.2312 14.7781 56.3953 15.5978 55.8512 16.6055L55.7961 16.7187L47.595 33.9396L29.1364 12.3618C28.402 11.5035 27.3567 10.972 26.2304 10.8844C25.1041 10.7967 23.9892 11.1601 23.1308 11.8944Z"
            fill="hsl(var(--illustration-secondary))" />
        <path
            d="M243.118 244.461L237.591 248.085C237.105 248.405 236.561 248.625 235.99 248.735C235.418 248.844 234.831 248.839 234.262 248.72C233.692 248.602 233.152 248.372 232.671 248.044C232.191 247.717 231.779 247.297 231.461 246.81L215.305 222.171L204.61 238.815L204.538 238.925C203.882 239.862 202.965 240.586 201.9 241.006C200.836 241.426 199.671 241.524 198.551 241.287L198.27 241.229C197.112 240.937 196.072 240.296 195.29 239.394C194.508 238.491 194.023 237.37 193.899 236.182L187.054 174.541C186.934 173.462 187.114 172.371 187.576 171.389C188.038 170.407 188.763 169.572 189.671 168.977C190.579 168.381 191.634 168.049 192.719 168.017C193.804 167.985 194.876 168.254 195.818 168.795L249.62 199.645C250.646 200.244 251.468 201.138 251.977 202.212C252.486 203.286 252.658 204.488 252.472 205.662C252.285 206.835 251.748 207.925 250.931 208.787C250.114 209.65 249.056 210.246 247.894 210.496L247.765 210.518L228.234 213.706L244.391 238.342C245.034 239.322 245.261 240.517 245.022 241.665C244.783 242.812 244.099 243.818 243.118 244.461Z"
            fill="hsl(var(--illustration-secondary))" />
        <g opacity="0.5">
            <path
                d="M29.8427 236.446L26.7576 233.674C26.4857 233.431 26.2645 233.136 26.1068 232.807C25.949 232.478 25.8577 232.121 25.8383 231.756C25.8188 231.392 25.8714 231.027 25.9932 230.683C26.115 230.339 26.3035 230.022 26.5479 229.751L38.9047 215.999L27.092 212.18L27.0142 212.154C26.3402 211.906 25.7539 211.466 25.3283 210.887C24.9028 210.309 24.6568 209.618 24.6209 208.901L24.6113 208.721C24.6026 207.971 24.8245 207.237 25.2467 206.618C25.669 205.999 26.2712 205.525 26.972 205.259L63.269 191.222C63.9041 190.976 64.595 190.911 65.265 191.033C65.935 191.156 66.5579 191.462 67.0645 191.917C67.5712 192.373 67.9418 192.959 68.1352 193.612C68.3287 194.265 68.3374 194.959 68.1604 195.617L58.0728 233.204C57.8744 233.922 57.4633 234.564 56.8936 235.045C56.3239 235.526 55.6221 235.824 54.8803 235.899C54.1385 235.973 53.3914 235.822 52.737 235.465C52.0826 235.108 51.5514 234.561 51.2132 233.897L51.1792 233.822L46.1134 222.485L33.7589 236.237C33.2673 236.784 32.5785 237.113 31.8441 237.153C31.1097 237.192 30.3898 236.938 29.8427 236.446Z"
                fill="hsl(var(--illustration-secondary))" />
        </g>
        <g opacity="0.25">
            <path
                d="M227.469 39.4162L230.771 41.9251C231.062 42.1454 231.307 42.421 231.491 42.7361C231.676 43.0511 231.796 43.3994 231.845 43.7611C231.895 44.1227 231.872 44.4905 231.779 44.8435C231.686 45.1964 231.524 45.5275 231.303 45.8177L220.119 60.5397L232.205 63.3745L232.285 63.394C232.977 63.5854 233.598 63.9763 234.069 64.5178C234.541 65.0593 234.843 65.7276 234.938 66.4394L234.962 66.6181C235.032 67.3641 234.872 68.1137 234.502 68.7654C234.132 69.4171 233.57 69.9394 232.894 70.2615L197.874 87.2354C197.261 87.5329 196.578 87.6548 195.9 87.5876C195.222 87.5204 194.576 87.2667 194.034 86.8547C193.492 86.4426 193.074 85.8884 192.828 85.2534C192.581 84.6184 192.515 83.9276 192.638 83.2575L199.601 44.9687C199.74 44.2362 200.096 43.5627 200.625 43.0366C201.153 42.5105 201.828 42.1563 202.561 42.0207C203.294 41.885 204.051 41.9741 204.733 42.2763C205.414 42.5785 205.989 43.0797 206.38 43.7141L206.42 43.7856L212.401 54.6685L223.583 39.9468C224.028 39.3612 224.687 38.9763 225.416 38.8768C226.145 38.7773 226.883 38.9713 227.469 39.4162Z"
                fill="hsl(var(--illustration-secondary))" />
        </g>
    </g>
    <defs>
        <clipPath id="clip0_49_181">
            <rect width="256" height="256" fill="white" />
        </clipPath>
        <clipPath id="clip1_49_181">
            <rect x="34" y="34" width="188" height="188" rx="94" fill="white" />
        </clipPath>
    </defs>
</svg>